<?xml version="1.0" standalone="no"?>
<!DOCTYPE svg PUBLIC "-//W3C//DTD SVG 20010904//EN"
 "http://www.w3.org/TR/2001/REC-SVG-20010904/DTD/svg10.dtd">
<svg version="1.0" xmlns="http://www.w3.org/2000/svg"
 width="512.000000pt" height="512.000000pt" viewBox="0 0 512.000000 512.000000"
 preserveAspectRatio="xMidYMid meet">

<g transform="translate(0.000000,512.000000) scale(0.100000,-0.100000)"
fill="#000000" stroke="none">
<path d="M2555 4868 c-33 -19 -46 -41 -40 -70 2 -16 3 -28 2 -28 -1 -1 -50 -3
-110 -6 -105 -5 -109 -5 -169 25 -94 47 -202 41 -240 -13 -4 -6 -8 -28 -8 -48
0 -32 -4 -39 -26 -44 -21 -5 -33 1 -69 36 -28 28 -49 41 -59 37 -25 -10 -19
-34 14 -57 47 -34 48 -33 -95 -90 -44 -18 -108 -46 -143 -62 l-63 -30 -27 23
c-15 13 -31 30 -37 37 -17 22 -46 4 -39 -24 5 -21 3 -24 -21 -24 -22 0 -26 -4
-23 -22 2 -13 12 -24 26 -28 31 -7 29 -22 -5 -40 -15 -8 -54 -33 -86 -55 -59
-41 -70 -69 -29 -71 13 -1 38 -18 56 -38 19 -20 41 -36 50 -36 11 0 16 -9 16
-29 0 -17 4 -32 9 -36 11 -6 51 42 51 61 0 18 10 18 38 -2 24 -16 42 -12 42
11 0 8 -19 43 -43 78 -60 87 -62 95 -31 109 23 11 28 9 45 -12 10 -14 19 -28
19 -32 0 -4 14 -30 31 -58 20 -32 38 -50 50 -50 29 0 24 30 -21 109 -22 39
-40 73 -40 77 0 12 34 33 53 34 13 0 17 -5 12 -19 -4 -12 3 -26 20 -42 13 -13
25 -29 25 -36 0 -17 41 -43 67 -43 12 0 38 14 58 31 27 24 39 29 48 20 13 -13
43 -15 51 -3 2 4 -11 43 -30 85 -40 91 -41 103 -14 112 24 8 50 -10 50 -34 0
-9 9 -40 19 -70 19 -60 43 -83 62 -64 10 10 7 32 -14 100 -22 68 -25 88 -15
95 32 20 44 8 62 -64 22 -86 40 -120 61 -112 20 8 19 25 -5 115 -21 83 -18 94
36 105 24 5 33 2 38 -12 4 -11 1 -21 -9 -26 -36 -21 4 -78 55 -78 23 0 26 24
10 79 -7 24 -6 39 1 48 26 30 37 10 53 -96 7 -50 17 -77 28 -85 32 -20 40 4
27 75 -6 35 -12 78 -13 94 -1 30 -1 30 58 33 l59 3 -31 -29 c-18 -17 -32 -40
-32 -52 0 -30 55 -84 80 -77 14 3 24 -1 31 -15 6 -12 18 -18 32 -16 20 3 22 8
19 58 -3 61 8 86 32 77 18 -7 22 -42 6 -52 -12 -8 -13 -42 -1 -49 17 -11 38 5
54 40 23 46 22 48 -16 89 -23 24 -39 34 -50 29 -10 -4 -17 -1 -17 6 0 9 14 11
52 6 28 -4 56 -10 60 -12 5 -3 8 -46 7 -96 -2 -91 6 -116 35 -105 10 4 16 19
16 40 0 19 3 61 6 95 5 47 11 61 25 65 27 7 25 47 -1 47 -13 0 -30 16 -50 48
-40 66 -88 87 -135 60z m82 -57 c18 -23 16 -39 -7 -46 -21 -7 -70 17 -70 35 0
4 7 15 15 24 17 17 43 11 62 -13z m-443 -50 c16 -6 27 -13 25 -16 -9 -9 -160
-36 -169 -30 -17 10 -11 33 13 50 24 18 80 16 131 -4z m286 -121 c0 -23 -22
-35 -45 -26 -13 4 -14 10 -5 26 14 27 50 27 50 0z m-668 -111 c9 -19 17 -40
18 -46 0 -22 -55 -75 -74 -72 -17 4 -16 6 5 32 17 23 19 31 9 37 -8 5 -22 4
-32 -1 -12 -7 -18 -6 -18 1 0 6 12 15 26 20 17 7 24 15 20 25 -7 20 4 47 18
42 6 -2 19 -19 28 -38z m-365 -181 c31 -50 -10 -80 -48 -35 -23 28 -24 43 -1
56 23 14 31 10 49 -21z"/>
<path d="M3090 4764 c-11 -12 -10 -18 3 -32 16 -15 18 -15 34 0 13 14 14 20 3
32 -7 9 -16 16 -20 16 -4 0 -13 -7 -20 -16z"/>
<path d="M2846 4731 c-9 -13 16 -30 60 -39 29 -6 40 -13 42 -30 2 -15 -2 -22
-12 -22 -9 0 -16 5 -16 11 0 6 -10 9 -22 7 -29 -4 -27 -24 15 -108 31 -64 58
-83 65 -47 2 10 -4 29 -13 43 -16 24 -15 26 2 39 15 11 22 10 45 -7 31 -22 34
-34 16 -74 -11 -23 -10 -28 7 -40 27 -20 39 -5 53 68 8 35 16 74 18 87 5 21 8
23 47 17 23 -4 52 -14 64 -22 20 -12 21 -17 11 -34 -13 -20 -13 -20 -29 2 -22
28 -54 18 -46 -15 27 -109 45 -150 68 -155 23 -4 30 23 14 54 -17 33 -9 56 19
52 14 -2 28 -19 43 -48 27 -57 62 -90 99 -94 26 -3 29 -7 29 -37 0 -27 4 -34
19 -34 22 0 25 6 66 98 22 52 34 67 50 67 11 0 23 -7 27 -16 6 -16 1 -29 -47
-112 -16 -29 -30 -59 -30 -66 0 -12 20 -26 36 -26 2 0 22 33 44 73 22 39 44
78 49 86 8 12 21 7 74 -25 73 -43 97 -71 72 -80 -8 -4 -30 5 -48 19 -19 14
-42 27 -53 29 -16 3 -19 -3 -19 -42 0 -46 2 -48 49 -39 35 7 41 -24 12 -68
-27 -40 -27 -73 0 -73 7 0 36 33 64 73 42 59 56 72 78 72 17 0 28 6 30 17 7
34 -377 278 -416 263 -7 -3 -31 10 -53 27 -39 31 -41 32 -67 16 -30 -18 -41
-56 -21 -69 26 -16 2 -19 -29 -3 -36 18 -43 53 -13 61 24 6 34 28 18 41 -17
14 -135 54 -182 63 -22 4 -77 17 -123 28 -87 22 -157 27 -166 12z m204 -77
c11 -12 10 -18 -3 -31 -8 -9 -23 -13 -31 -10 -19 8 -21 43 -3 50 20 9 24 8 37
-9z m350 -124 c0 -11 -4 -20 -10 -20 -5 0 -10 9 -10 20 0 11 5 20 10 20 6 0
10 -9 10 -20z m84 -54 c-10 -32 -23 -44 -56 -51 -21 -5 -35 -2 -46 9 -15 15
-14 16 5 16 26 0 73 44 73 68 1 15 2 15 15 -2 9 -12 12 -29 9 -40z"/>
<path d="M1062 4156 c-85 -84 -110 -102 -124 -95 -9 5 -37 9 -61 9 -38 0 -49
-5 -71 -31 -34 -40 -33 -65 5 -100 l30 -28 -54 -78 c-55 -78 -138 -214 -149
-244 -3 -9 -2 -22 3 -30 8 -11 14 -8 34 16 48 59 55 64 70 59 18 -7 20 -44 3
-44 -24 0 -39 -16 -32 -34 6 -16 16 -17 83 -11 83 8 111 18 111 41 0 21 -27
29 -56 15 -23 -10 -26 -9 -35 17 -5 16 -23 39 -39 51 -34 24 -37 36 -14 45 10
4 44 -11 89 -39 71 -44 99 -53 109 -36 9 14 -16 39 -83 83 -69 45 -76 55 -62
77 8 12 14 12 45 -3 19 -9 41 -25 48 -35 21 -29 56 -43 89 -36 23 5 34 2 43
-11 18 -24 36 -9 36 32 0 31 3 34 29 34 16 0 33 6 39 13 14 16 0 40 -20 35 -9
-2 -24 8 -35 21 -21 26 -43 22 -43 -8 0 -26 -38 -71 -60 -71 -9 0 -23 7 -30
15 -10 12 -8 22 14 55 14 22 26 43 26 47 0 3 -15 19 -32 34 -28 23 -31 30 -22
46 19 31 37 25 103 -37 35 -33 72 -60 82 -60 38 0 19 39 -46 97 -36 32 -65 63
-65 69 0 19 45 64 63 64 23 0 31 -23 18 -49 -13 -23 6 -47 44 -57 24 -6 85 22
85 39 0 5 17 7 37 5 60 -5 55 23 -16 97 -64 66 -68 74 -50 92 14 14 3 33 -17
33 -8 0 -63 -47 -122 -104z m117 -21 c33 -37 35 -44 25 -69 -10 -27 -44 -20
-44 9 0 14 -8 32 -19 41 -18 15 -18 54 -1 54 4 0 22 -16 39 -35z m-264 -125
c8 -14 -33 -42 -57 -38 -31 4 -36 36 -7 47 24 8 56 4 64 -9z"/>
<path d="M3970 4200 c0 -11 5 -20 10 -20 17 0 11 -22 -15 -56 -31 -40 -32 -76
-3 -115 21 -28 22 -31 5 -40 -22 -13 -22 -48 0 -56 12 -5 34 12 79 60 34 37
67 67 72 67 16 0 102 -105 102 -125 0 -13 -9 -9 -40 19 -22 20 -43 36 -46 36
-17 0 -64 -36 -73 -57 -31 -67 14 -153 80 -153 39 0 36 26 -6 50 -24 13 -30
23 -30 50 0 21 6 37 18 44 16 9 24 5 53 -28 34 -40 35 -40 63 -23 34 20 36 18
95 -76 32 -50 35 -58 20 -64 -12 -4 -23 1 -33 17 -9 14 -26 36 -39 50 l-22 25
-21 -24 c-28 -33 -22 -65 14 -69 15 -2 32 -12 37 -22 8 -15 5 -22 -15 -37 -69
-49 -70 -50 -56 -67 7 -9 17 -16 20 -16 4 0 37 20 74 45 75 50 91 54 106 26
13 -23 10 -26 -86 -77 -72 -38 -93 -67 -58 -80 14 -6 104 37 138 65 15 12 24
13 49 3 61 -23 63 3 8 93 -22 36 -40 67 -40 70 0 10 -95 144 -164 230 -101
128 -248 275 -275 275 -14 0 -21 -6 -21 -20z m94 -103 c9 -13 5 -22 -16 -43
-47 -47 -82 -6 -36 43 24 26 36 26 52 0z"/>
<path d="M2362 3328 c1 -93 6 -168 10 -168 5 0 9 62 10 138 1 162 1 173 -13
187 -7 7 -10 -41 -7 -157z"/>
<path d="M570 3434 c0 -8 8 -17 18 -20 9 -3 29 -12 44 -20 14 -8 33 -14 42
-14 9 0 16 -4 16 -9 0 -12 39 -21 45 -10 3 4 -6 11 -20 15 -14 3 -25 10 -25
15 0 5 -6 9 -14 9 -7 0 -34 11 -60 25 -37 19 -46 21 -46 9z"/>
<path d="M4515 3416 c-16 -8 -51 -23 -77 -35 -47 -20 -65 -37 -54 -48 3 -4 14
1 24 10 10 10 23 17 29 17 18 0 113 52 113 61 0 11 1 11 -35 -5z"/>
<path d="M550 3370 c0 -5 12 -10 28 -9 24 0 25 1 7 9 -27 12 -35 12 -35 0z"/>
<path d="M3017 3356 c-14 -21 -14 -25 -2 -30 10 -3 17 3 21 20 9 35 0 39 -19
10z"/>
<path d="M4545 3353 c-11 -2 -33 -10 -50 -18 -16 -8 -45 -20 -62 -27 -34 -13
-44 -28 -19 -28 7 0 19 7 26 15 7 8 25 15 41 15 16 0 29 5 29 10 0 6 8 10 18
10 19 0 49 17 42 23 -3 2 -14 2 -25 0z"/>
<path d="M610 3340 c20 -13 50 -13 50 0 0 6 -15 10 -32 10 -25 0 -29 -3 -18
-10z"/>
<path d="M520 3319 c0 -8 23 -12 36 -6 3 1 10 -6 15 -15 6 -11 22 -18 40 -18
18 0 28 4 24 10 -3 6 -17 10 -30 10 -13 0 -26 4 -29 9 -8 12 -56 20 -56 10z"/>
<path d="M670 3320 c0 -4 9 -10 20 -13 11 -3 20 -2 20 3 0 4 -9 10 -20 13 -11
3 -20 2 -20 -3z"/>
<path d="M4565 3290 c-3 -5 3 -10 14 -10 12 0 21 5 21 10 0 6 -6 10 -14 10 -8
0 -18 -4 -21 -10z"/>
<path d="M510 3260 c19 -13 30 -13 30 0 0 6 -10 10 -22 10 -19 0 -20 -2 -8
-10z"/>
<path d="M640 3266 c0 -9 40 -13 46 -5 3 5 -6 9 -20 9 -14 0 -26 -2 -26 -4z"/>
<path d="M4480 3260 c0 -5 14 -7 33 -3 45 8 47 13 4 13 -20 0 -37 -4 -37 -10z"/>
<path d="M550 3240 c0 -5 15 -10 33 -10 24 0 28 3 17 10 -20 13 -50 13 -50 0z"/>
<path d="M4430 3240 c-12 -8 -9 -10 13 -10 15 0 27 5 27 10 0 13 -20 13 -40 0z"/>
<path d="M4590 3230 c0 -5 -16 -10 -36 -10 -21 0 -33 -4 -29 -10 3 -6 18 -7
33 -4 30 7 65 34 44 34 -7 0 -12 -4 -12 -10z"/>
<path d="M485 3210 c3 -5 10 -10 16 -10 5 0 9 5 9 10 0 6 -7 10 -16 10 -8 0
-12 -4 -9 -10z"/>
<path d="M633 3209 c14 -8 22 -8 30 0 8 8 3 11 -18 11 -26 -1 -28 -2 -12 -11z"/>
<path d="M520 3190 c0 -5 15 -10 33 -10 24 0 28 3 17 10 -20 13 -50 13 -50 0z"/>
<path d="M4450 3190 c-11 -7 -7 -10 18 -10 20 0 31 4 27 10 -8 13 -26 13 -45
0z"/>
<path d="M605 3160 c3 -5 15 -10 26 -10 10 0 19 5 19 10 0 6 -12 10 -26 10
-14 0 -23 -4 -19 -10z"/>
<path d="M4555 3160 c-7 -12 19 -12 55 0 22 7 21 8 -12 9 -20 1 -40 -3 -43 -9z"/>
<path d="M473 3150 c2 -10 18 -15 48 -16 44 -1 44 -1 4 3 -22 3 -44 10 -48 16
-6 8 -7 7 -4 -3z"/>
<path d="M2828 3033 c2 -70 5 -130 8 -132 2 -2 4 55 4 127 0 73 -4 132 -8 132
-5 0 -7 -57 -4 -127z"/>
<path d="M2390 3140 c0 -5 5 -10 10 -10 6 0 10 5 10 10 0 6 -4 10 -10 10 -5 0
-10 -4 -10 -10z"/>
<path d="M4478 3133 c12 -2 30 -2 40 0 9 3 -1 5 -23 4 -22 0 -30 -2 -17 -4z"/>
<path d="M2415 3121 c-3 -5 -1 -12 5 -16 5 -3 10 1 10 9 0 18 -6 21 -15 7z"/>
<path d="M565 3110 c3 -5 19 -10 36 -10 16 0 29 5 29 10 0 6 -16 10 -36 10
-21 0 -33 -4 -29 -10z"/>
<path d="M4590 3110 c-12 -8 -9 -10 12 -10 15 0 30 5 33 10 8 13 -25 13 -45 0z"/>
<path d="M2440 3090 c0 -5 5 -10 10 -10 6 0 10 5 10 10 0 6 -4 10 -10 10 -5 0
-10 -4 -10 -10z"/>
<path d="M468 3083 c12 -2 32 -2 45 0 12 2 2 4 -23 4 -25 0 -35 -2 -22 -4z"/>
<path d="M1810 3070 c28 -21 33 -20 24 4 -3 9 -16 16 -28 16 -20 0 -20 -1 4
-20z"/>
<path d="M4503 3083 c15 -2 37 -2 50 0 12 2 0 4 -28 4 -27 0 -38 -2 -22 -4z"/>
<path d="M540 3060 c0 -5 17 -10 38 -9 30 0 33 2 17 9 -28 12 -55 12 -55 0z"/>
<path d="M2465 3060 c4 -6 11 -8 16 -5 14 9 11 15 -7 15 -8 0 -12 -5 -9 -10z"/>
<path d="M4635 3060 c-3 -5 1 -10 10 -10 9 0 13 5 10 10 -3 6 -8 10 -10 10 -2
0 -7 -4 -10 -10z"/>
<path d="M1850 3040 c0 -5 5 -10 11 -10 5 0 7 5 4 10 -3 6 -8 10 -11 10 -2 0
-4 -4 -4 -10z"/>
<path d="M2490 3040 c0 -5 5 -10 10 -10 6 0 10 5 10 10 0 6 -4 10 -10 10 -5 0
-10 -4 -10 -10z"/>
<path d="M443 3029 c14 -8 22 -8 30 0 8 8 3 11 -18 11 -26 -1 -28 -2 -12 -11z"/>
<path d="M4528 3033 c18 -2 45 -2 60 0 15 2 0 4 -33 4 -33 0 -45 -2 -27 -4z"/>
<path d="M515 3010 c-4 -6 11 -10 36 -10 48 0 49 4 2 13 -18 4 -35 2 -38 -3z"/>
<path d="M2520 3014 c0 -7 27 -34 34 -34 4 0 1 9 -6 20 -12 19 -28 27 -28 14z"/>
<path d="M4573 2983 c15 -2 39 -2 55 0 15 2 2 4 -28 4 -30 0 -43 -2 -27 -4z"/>
<path d="M493 2953 c15 -2 37 -2 50 0 12 2 0 4 -28 4 -27 0 -38 -2 -22 -4z"/>
<path d="M1955 2930 c3 -5 8 -10 11 -10 2 0 4 5 4 10 0 6 -5 10 -11 10 -5 0
-7 -4 -4 -10z"/>
<path d="M4585 2929 c-5 -7 8 -8 41 -3 64 9 68 14 11 14 -25 0 -49 -5 -52 -11z"/>
<path d="M420 2909 c0 -5 23 -9 52 -9 28 0 49 2 47 4 -9 8 -99 13 -99 5z"/>
<path d="M1980 2910 c0 -5 5 -10 11 -10 5 0 7 5 4 10 -3 6 -8 10 -11 10 -2 0
-4 -4 -4 -10z"/>
<path d="M4498 2903 c6 -2 18 -2 25 0 6 3 1 5 -13 5 -14 0 -19 -2 -12 -5z"/>
<path d="M565 2880 c3 -5 8 -10 11 -10 2 0 4 5 4 10 0 6 -5 10 -11 10 -5 0 -7
-4 -4 -10z"/>
<path d="M2005 2880 c3 -5 8 -10 11 -10 2 0 4 5 4 10 0 6 -5 10 -11 10 -5 0
-7 -4 -4 -10z"/>
<path d="M4650 2880 c-12 -8 -11 -10 8 -10 12 0 22 5 22 10 0 13 -11 13 -30 0z"/>
<path d="M2254 2870 c-5 -5 -54 -11 -109 -13 -78 -2 -70 -3 40 -4 77 0 129 2
115 4 -14 3 -28 9 -31 14 -3 5 -9 5 -15 -1z"/>
<path d="M418 2853 c12 -2 32 -2 45 0 12 2 2 4 -23 4 -25 0 -35 -2 -22 -4z"/>
<path d="M4528 2853 c12 -2 32 -2 45 0 12 2 2 4 -23 4 -25 0 -35 -2 -22 -4z"/>
<path d="M540 2830 c0 -5 9 -10 20 -10 11 0 20 5 20 10 0 6 -9 10 -20 10 -11
0 -20 -4 -20 -10z"/>
<path d="M398 2803 c7 -3 16 -2 19 1 4 3 -2 6 -13 5 -11 0 -14 -3 -6 -6z"/>
<path d="M3110 2800 c0 -5 4 -10 9 -10 6 0 13 5 16 10 3 6 -1 10 -9 10 -9 0
-16 -4 -16 -10z"/>
<path d="M3385 2801 c-10 -17 10 -20 35 -5 l25 13 -27 1 c-15 0 -29 -4 -33 -9z"/>
<path d="M4538 2803 c17 -2 47 -2 65 0 17 2 3 4 -33 4 -36 0 -50 -2 -32 -4z"/>
<path d="M513 2773 c15 -2 37 -2 50 0 12 2 0 4 -28 4 -27 0 -38 -2 -22 -4z"/>
<path d="M2515 2767 c-98 -39 -140 -140 -96 -229 69 -142 270 -121 311 33 11
41 9 61 -16 117 -30 65 -133 106 -199 79z"/>
<path d="M3006 2699 c-43 -44 -76 -82 -74 -84 5 -5 168 149 168 158 0 17 -20
0 -94 -74z"/>
<path d="M4563 2753 c26 -2 68 -2 95 0 26 2 4 3 -48 3 -52 0 -74 -1 -47 -3z"/>
<path d="M390 2728 c0 -4 39 -8 88 -7 48 0 83 2 77 4 -24 8 -165 11 -165 3z"/>
<path d="M4680 2700 c0 -5 5 -10 10 -10 6 0 10 5 10 10 0 6 -4 10 -10 10 -5 0
-10 -4 -10 -10z"/>
<path d="M4603 2693 c9 -2 25 -2 35 0 9 3 1 5 -18 5 -19 0 -27 -2 -17 -5z"/>
<path d="M386 2670 c6 -6 21 -6 39 -1 30 9 30 9 -9 10 -26 1 -37 -2 -30 -9z"/>
<path d="M383 2598 c-2 -5 37 -8 88 -8 51 0 90 3 87 6 -9 8 -169 10 -175 2z"/>
<path d="M2168 2579 c-9 -5 -46 -40 -84 -79 -37 -38 -73 -70 -81 -70 -7 0 -13
-4 -13 -10 0 -26 36 -3 116 75 82 81 100 105 62 84z"/>
<path d="M4573 2573 c26 -2 68 -2 95 0 26 2 4 3 -48 3 -52 0 -74 -1 -47 -3z"/>
<path d="M455 2443 c-69 -6 -85 -12 -85 -34 0 -27 22 -33 70 -21 59 15 52 -6
-17 -51 -43 -28 -55 -55 -30 -74 16 -13 177 4 195 21 10 10 10 16 -1 30 -12
17 -18 17 -50 7 -62 -21 -64 -7 -4 37 58 43 62 49 51 76 -6 16 -30 18 -129 9z"/>
<path d="M4655 2426 c-22 -7 -59 -18 -82 -25 -44 -12 -64 -41 -44 -65 18 -21
180 -98 191 -91 16 10 12 30 -10 50 -29 26 -26 73 4 87 26 11 40 34 30 49 -7
12 -41 11 -89 -5z m-7 -78 c-7 -19 -38 -22 -38 -4 0 10 9 16 21 16 12 0 19 -5
17 -12z"/>
<path d="M1710 2420 c-12 -8 -12 -10 5 -10 11 0 27 5 35 10 12 8 12 10 -5 10
-11 0 -27 -5 -35 -10z"/>
<path d="M4506 2234 c-9 -24 0 -31 48 -38 55 -9 53 -32 -2 -42 -57 -10 -72
-22 -72 -54 0 -16 -4 -31 -9 -35 -5 -3 -12 -20 -16 -38 -4 -17 -12 -47 -18
-64 -8 -26 -8 -36 2 -45 10 -11 16 -8 32 10 18 22 21 23 66 12 27 -7 64 -13
83 -14 28 -1 35 3 35 18 0 14 -14 24 -55 37 -30 10 -63 19 -72 19 -14 0 -18 8
-18 35 0 40 0 40 77 20 73 -19 92 -19 100 1 8 22 -22 44 -58 44 -50 0 -40 17
21 35 87 26 88 76 2 90 -20 4 -50 11 -66 16 -43 13 -73 11 -80 -7z"/>
<path d="M396 2221 c-10 -15 4 -38 29 -49 35 -16 43 -57 16 -86 -13 -14 -19
-29 -15 -39 8 -22 26 -21 57 3 14 11 28 20 31 20 17 0 106 74 106 88 0 32 -16
41 -105 56 -105 19 -112 19 -119 7z m139 -72 c0 -7 -8 -15 -17 -17 -18 -3 -25
18 -11 32 10 10 28 1 28 -15z"/>
<path d="M613 2093 c-7 -3 -13 -17 -13 -33 0 -24 -6 -29 -47 -43 -27 -8 -61
-18 -76 -21 -22 -5 -28 -12 -25 -29 4 -27 38 -28 110 -4 43 14 49 14 63 0 26
-25 13 -47 -37 -63 -26 -8 -50 -18 -54 -22 -4 -5 -16 -8 -26 -8 -13 0 -18 -7
-18 -25 0 -37 19 -35 127 11 17 8 38 14 47 14 20 0 37 32 26 50 -5 8 -16 45
-25 82 -18 72 -33 98 -52 91z"/>
<path d="M1893 1952 c-7 -7 -13 -22 -13 -33 0 -16 3 -18 18 -10 10 5 24 17 32
25 15 19 36 21 47 4 4 -7 10 -80 13 -163 5 -146 6 -150 28 -153 22 -3 22 -3
22 143 0 183 11 209 67 165 34 -26 55 -15 34 19 -12 19 -229 22 -248 3z"/>
<path d="M2398 1961 c-48 -5 -56 -8 -48 -21 5 -8 10 -77 10 -152 0 -150 3
-168 31 -168 20 0 22 7 19 78 -2 52 12 72 54 73 108 2 145 137 50 182 -19 10
-40 16 -47 15 -7 -1 -38 -4 -69 -7z m82 -28 c33 -23 40 -33 40 -66 0 -32 -42
-77 -71 -77 -38 0 -53 89 -23 135 19 30 22 30 54 8z"/>
<path d="M2864 1957 c-8 -4 -14 -20 -14 -34 l0 -25 34 26 c65 49 70 40 76
-149 5 -142 6 -150 25 -150 19 0 20 8 25 152 3 97 9 156 17 164 9 9 20 6 47
-11 36 -21 36 -21 36 -1 0 11 -6 23 -12 28 -17 10 -215 10 -234 0z"/>
<path d="M1381 1944 c9 -11 12 -52 10 -155 -2 -96 1 -145 9 -155 23 -27 30 -1
30 116 0 65 4 121 9 125 6 3 22 -16 37 -42 95 -168 126 -213 145 -213 18 0 19
9 19 170 0 98 -4 170 -9 170 -17 0 -22 -38 -19 -134 2 -52 0 -98 -4 -102 -7
-6 -47 33 -48 47 0 8 -85 156 -100 174 -7 9 -29 15 -52 15 -36 0 -39 -2 -27
-16z"/>
<path d="M1751 1938 c8 -14 11 -68 10 -153 -1 -72 1 -138 4 -148 9 -21 41 -22
49 -1 8 20 8 288 0 308 -4 10 -18 16 -40 16 -33 0 -34 -1 -23 -22z"/>
<path d="M2674 1923 c0 -21 -7 -54 -16 -73 -44 -96 -78 -202 -69 -218 7 -13
14 -6 31 35 l23 51 56 5 c63 5 78 -3 95 -54 12 -34 40 -58 53 -46 6 7 -19 93
-47 162 -4 11 -21 54 -37 95 -26 69 -31 75 -58 78 -29 3 -30 1 -31 -35z m63
-101 c17 -39 18 -52 8 -65 -18 -25 -72 -22 -80 3 -8 25 23 110 40 110 7 0 21
-22 32 -48z"/>
<path d="M3174 1938 c13 -18 16 -52 16 -159 0 -108 3 -139 15 -149 12 -10 15
5 17 116 2 78 7 129 14 131 5 2 19 -14 30 -35 10 -21 44 -79 74 -130 53 -90
80 -112 94 -76 8 20 8 288 0 308 -15 40 -24 7 -26 -101 -2 -71 -7 -118 -14
-120 -5 -2 -36 43 -68 99 -75 132 -80 138 -128 138 -38 0 -39 0 -24 -22z"/>
<path d="M3596 1936 c3 -14 -3 -45 -16 -77 -35 -86 -37 -91 -60 -157 -16 -45
-20 -66 -12 -74 7 -7 17 4 32 40 l22 50 56 4 c60 4 92 -10 92 -41 0 -24 29
-61 47 -61 12 0 14 7 8 38 -4 20 -10 42 -14 47 -5 6 -23 55 -41 110 -43 127
-54 145 -91 145 -26 0 -29 -3 -23 -24z m59 -110 c23 -60 14 -86 -30 -86 -25 0
-35 5 -40 20 -8 25 25 110 42 110 6 0 19 -20 28 -44z"/>
<path d="M4444 1873 c-32 -3 -43 -9 -47 -25 -5 -16 11 -36 70 -92 85 -80 83
-79 102 -67 13 8 12 14 -3 43 -22 41 -9 85 25 90 23 3 48 33 37 44 -9 8 -129
13 -184 7z m65 -57 c9 -10 8 -15 -3 -19 -16 -7 -26 1 -26 20 0 17 14 17 29 -1z"/>
<path d="M608 1824 c-33 -18 -78 -70 -78 -91 0 -33 34 -85 66 -101 68 -32 164
29 164 105 0 27 -8 43 -34 69 -37 37 -71 42 -118 18z m86 -53 c25 -28 16 -62
-21 -84 -38 -22 -70 -15 -82 16 -11 28 2 53 37 71 36 20 46 20 66 -3z"/>
<path d="M2203 1813 c-16 -6 -17 -35 -1 -51 14 -14 48 2 48 23 0 17 -30 34
-47 28z"/>
<path d="M4370 1747 c-27 -20 -50 -60 -50 -84 0 -19 15 -30 85 -64 48 -23 92
-39 101 -35 21 8 14 39 -13 51 -27 12 -36 31 -24 53 17 31 -30 93 -71 92 -7 0
-20 -6 -28 -13z m53 -62 c4 -8 2 -17 -4 -21 -15 -9 -39 3 -39 21 0 19 36 20
43 0z"/>
<path d="M740 1635 c-19 -13 -40 -24 -47 -24 -6 -1 -13 -4 -15 -8 -1 -5 -16
-15 -33 -23 -16 -9 -30 -22 -30 -30 0 -21 49 -25 65 -6 12 15 50 23 50 10 0
-3 -14 -25 -31 -49 -17 -24 -29 -51 -27 -60 4 -23 36 -44 46 -30 4 6 38 26 75
45 75 39 95 61 72 80 -12 10 -22 8 -51 -9 -50 -30 -58 -18 -23 33 32 48 35 66
17 84 -17 17 -28 14 -68 -13z"/>
<path d="M4247 1541 c-3 -11 1 -28 9 -38 7 -10 14 -26 14 -36 0 -15 -6 -17
-33 -12 -25 5 -37 2 -51 -14 -27 -30 -11 -41 62 -41 51 0 73 -5 92 -20 35 -27
60 -26 60 3 0 15 -11 29 -29 40 -18 10 -41 41 -58 75 -30 59 -57 77 -66 43z"/>
<path d="M825 1421 c-99 -28 -106 -32 -103 -49 2 -11 15 -18 36 -20 44 -4 68
-40 54 -81 -8 -23 -7 -32 4 -42 18 -14 16 -16 83 79 84 119 63 152 -74 113z
m55 -50 c0 -5 -6 -14 -14 -20 -16 -13 -32 2 -21 19 8 12 35 13 35 1z"/>
<path d="M4126 1366 c-62 -68 -52 -142 25 -185 34 -19 44 -21 73 -11 52 17
105 85 89 115 -5 8 -24 26 -42 39 -37 28 -59 22 -82 -21 -18 -33 2 -53 32 -34
25 15 43 3 33 -22 -9 -24 -51 -32 -80 -16 -37 19 -41 54 -13 105 18 34 21 46
12 55 -10 10 -20 4 -47 -25z"/>
<path d="M937 1269 c-42 -34 -77 -70 -77 -80 0 -27 64 -93 83 -86 19 7 12 37
-10 50 -24 14 -14 35 36 74 63 49 74 66 57 88 -11 15 -20 10 -89 -46z"/>
<path d="M4005 1210 c-57 -23 -84 -96 -56 -148 18 -33 72 -66 109 -66 27 0 42
8 68 37 38 41 41 63 17 114 -27 57 -87 85 -138 63z m68 -60 c50 -40 43 -100
-13 -100 -53 0 -94 85 -52 109 25 15 36 13 65 -9z"/>
<path d="M1083 1095 c-63 -65 -80 -105 -45 -105 26 0 144 125 140 147 -6 34
-34 22 -95 -42z"/>
<path d="M1177 1078 c-8 -13 -33 -43 -56 -68 -43 -47 -51 -74 -26 -83 9 -4 26
8 44 30 17 20 34 34 37 30 4 -4 3 -28 -3 -54 -16 -68 6 -112 42 -85 6 4 30 32
55 62 24 30 48 57 52 58 5 2 8 15 8 28 0 36 -32 30 -62 -12 -32 -45 -44 -30
-27 36 10 40 10 52 0 64 -19 23 -46 20 -64 -6z"/>
<path d="M3817 1043 c-13 -12 -6 -28 29 -68 20 -22 47 -55 61 -72 14 -18 30
-33 35 -33 18 0 88 65 88 83 0 23 -29 22 -55 -3 l-22 -20 -49 59 c-45 55 -71
71 -87 54z"/>
<path d="M3730 973 c-8 -3 -27 -17 -42 -31 -22 -20 -28 -35 -28 -68 0 -35 6
-49 35 -78 45 -46 79 -55 124 -30 82 44 77 137 -9 197 -24 17 -51 20 -80 10z
m80 -81 c11 -13 20 -32 20 -40 0 -22 -30 -52 -51 -52 -21 0 -69 55 -69 78 1
54 62 63 100 14z"/>
<path d="M1336 944 c-30 -30 -33 -54 -11 -88 15 -22 12 -56 -5 -56 -4 0 -15 9
-25 20 -24 27 -45 25 -45 -2 1 -25 33 -53 73 -63 20 -5 32 -1 51 19 29 28 33
53 11 82 -16 21 -20 54 -7 54 18 0 69 -30 91 -54 l24 -25 -40 -64 c-30 -47
-38 -68 -31 -81 16 -28 32 -18 73 47 35 54 44 62 69 60 16 -1 30 -4 33 -7 3
-2 -12 -35 -33 -74 -38 -71 -41 -107 -7 -100 10 2 29 26 43 53 53 103 48 97
75 79 14 -9 25 -20 25 -25 0 -4 -14 -38 -32 -75 -31 -65 -31 -67 -12 -81 23
-17 33 -6 69 74 21 47 27 53 54 53 37 0 37 -5 9 -82 l-21 -59 20 -27 c11 -15
36 -33 56 -40 54 -21 85 -2 115 73 13 33 25 61 27 63 1 1 15 -2 30 -8 22 -8
26 -15 21 -33 -22 -73 -34 -133 -26 -140 4 -5 16 -7 25 -5 17 3 30 35 49 119
6 29 27 42 52 32 13 -5 15 -16 11 -57 -3 -28 -9 -65 -13 -83 -6 -31 -6 -32 50
-48 60 -18 76 -14 76 15 0 14 -10 21 -36 26 -49 9 -43 38 9 42 45 4 49 25 7
42 -42 17 -39 40 4 40 80 0 47 49 -35 54 -30 1 -67 8 -82 14 -16 7 -35 12 -44
12 -8 0 -40 7 -70 16 -66 19 -73 15 -100 -65 -22 -65 -45 -84 -70 -58 -17 17
-17 20 5 82 26 75 27 95 6 95 -8 0 -32 9 -52 20 -20 11 -73 36 -116 56 -44 20
-92 45 -108 55 -15 10 -41 28 -58 39 -16 11 -36 20 -44 20 -7 0 -16 7 -20 15
-6 16 -64 55 -82 55 -6 0 -23 -12 -38 -26z"/>
<path d="M3583 864 c-3 -9 2 -32 12 -50 10 -19 16 -37 13 -40 -4 -3 -24 6 -47
20 -88 56 -110 25 -56 -78 46 -86 62 -106 81 -99 20 7 17 33 -6 68 -34 51 -23
57 34 19 46 -30 58 -34 75 -24 27 14 26 33 -4 78 -14 20 -25 42 -25 49 0 7 -4
13 -10 13 -5 0 -10 6 -10 13 0 14 -31 47 -44 47 -3 0 -9 -7 -13 -16z"/>
<path d="M3403 764 c-3 -8 0 -27 6 -41 10 -21 9 -27 -6 -39 -27 -21 -41 -17
-58 16 -15 30 -38 39 -50 20 -3 -5 -19 -10 -34 -10 -36 0 -92 -38 -109 -74
-19 -39 -7 -93 29 -129 27 -27 34 -29 81 -25 33 4 56 12 64 23 20 28 6 38 -43
30 -35 -5 -49 -3 -64 11 -37 33 -14 114 32 114 8 0 20 5 26 11 13 13 24 -4 59
-86 15 -34 29 -51 43 -53 28 -4 37 22 18 51 -19 29 -5 57 28 57 14 0 25 -4 25
-9 0 -4 9 -20 21 -35 17 -21 24 -24 35 -15 17 14 13 27 -29 119 -36 79 -60
100 -74 64z"/>
<path d="M3032 641 c-29 -10 -80 -22 -113 -25 -34 -4 -72 -11 -85 -16 -33 -13
-31 -38 4 -42 25 -3 28 -8 42 -75 17 -84 32 -105 56 -82 14 14 14 23 -1 85
-15 64 -15 69 2 81 36 27 48 16 69 -64 l20 -78 40 2 c65 4 84 12 84 34 0 25
-22 34 -48 20 -15 -8 -23 -7 -32 4 -10 12 -7 18 19 32 39 22 37 48 -4 48 -47
0 -50 28 -4 44 26 9 29 13 19 31 -6 11 -12 20 -13 19 -1 0 -26 -9 -55 -18z"/>
<path d="M2415 555 c-29 -29 -35 -43 -35 -76 0 -103 99 -156 171 -91 25 23 33
38 36 79 5 47 3 52 -31 87 -50 49 -92 50 -141 1z m96 -25 c14 -8 19 -21 19
-53 0 -24 -5 -48 -12 -55 -17 -17 -53 -15 -69 4 -19 23 -15 85 7 101 22 16 30
16 55 3z"/>
<path d="M2626 577 c-16 -12 -18 -25 -15 -106 3 -68 8 -94 19 -101 25 -16 35
-6 40 41 4 38 9 44 30 47 14 2 29 7 33 11 13 13 -24 43 -44 38 -11 -3 -19 -1
-19 4 0 5 -1 12 -2 17 -1 4 11 9 28 12 21 4 29 11 29 25 0 16 -8 21 -40 23
-22 2 -48 -3 -59 -11z"/>
</g>
</svg>
